<svg xmlns="http://www.w3.org/2000/svg" xmlns:xlink="http://www.w3.org/1999/xlink" viewBox="0 0 515.8 718.23"><defs>
  <style>
    .cls-1{fill:none;}.cls-2{clip-path:url(#clip-path);}.cls-3{fill:#194429;}.cls-4{fill:#153a23;}.cls-5{clip-path:url(#clip-path-2);}.cls-6{fill:#1f7a36;}.cls-7{clip-path:url(#clip-path-3);}.cls-8{fill:#198c36;}.cls-9{clip-path:url(#clip-path-4);}.cls-10{fill:#fbc8b8;}.cls-11{clip-path:url(#clip-path-5);}.cls-12{fill:#f7bc28;}.cls-13{clip-path:url(#clip-path-6);}.cls-14{clip-path:url(#clip-path-7);}
    #star1, #star2 {
  	animation-timing-function: ease-in-out;
  	animation-iteration-count: infinite;
  	animation-direction: alternate;
  	}

  	#star {
      animation-name: star1;
      animation-iteration-count: infinite;
      animation-duration: 2.75s;
  	}

  	@keyframes star1 {
      0 {
        opacity: 0;
        width: 50px;
      }
  		15% {
        opacity: .25;
      }
  		50% {
  			opacity: 1;
  		}
  		85% {
        opacity: .25;
      }
      100% {
          opacity: 0;
          width: 35px;
      }
    }
</style>
<clipPath id="clip-path"><rect class="cls-1" x="-286.37" y="7.22" width="479.83" height="904.35" transform="matrix(1, 0, 0, 1, -0.98, -0.1)"/></clipPath><clipPath id="clip-path-2"><rect class="cls-1" x="-211.96" y="339.41" width="628.8" height="343.07" transform="translate(-414.82 447.73) rotate(-71.7)"/></clipPath><clipPath id="clip-path-3"><rect class="cls-1" x="-40.69" y="472.23" width="515.56" height="499.61" transform="translate(-513.7 907.54) rotate(-87.51)"/></clipPath><clipPath id="clip-path-4"><rect class="cls-1" x="171.43" y="128.48" width="111.31" height="124.16" transform="matrix(0.97, -0.25, 0.25, 0.97, -40.58, 63.13)"/></clipPath><clipPath id="clip-path-5"><rect class="cls-1" x="271.14" y="70.48" width="25.41" height="26.91"/></clipPath><clipPath id="clip-path-6"><rect class="cls-1" x="465.15" y="576.63" width="25.41" height="26.91"/></clipPath><clipPath id="clip-path-7"><rect class="cls-1" x="493.56" y="624.15" width="11.96" height="11.96"/></clipPath></defs><g id="leafs"><g class="cls-2"><path class="cls-3" d="M-285.41,912.07A790.36,790.36,0,0,0-54.26,757.15C-16.22,720.42,18,680,51.33,638.89c23.54-29,46.83-58.75,63.45-92.28,15.35-31,24.69-64.53,33-98.08q21.16-85.14,34.54-172c10.57-68.77,17.29-140-.69-207.19-6.12-22.89-16.79-47-38.05-57.37C113.09-2.93,77.14,17.23,52.25,40.35c-35.52,33-63.49,73.22-90.47,113.53-91.63,136.89-177.27,283.75-201.6,446.77"/><path class="cls-4" d="M-62.61,623Q-27.66,571,2,515.56T55.7,401.94Q79.75,344,98,283.87t30.52-121.66q12.27-61.7,18.4-124.42.75-7.8,1.42-15.63c.56-6.59-9.72-6.53-10.28,0q-5.3,62.09-16.78,123.43-11.46,61.15-28.88,121T51.69,384.69Q28.62,442.31-.09,497.43T-62.84,604.77q-4.29,6.56-8.66,13.08C-75.2,623.35-66.29,628.49-62.61,623Z"/><path class="cls-4" d="M127.67,164.21c12.07-20,14.2-24.82,29.51-42.36,1.81-2.09,22.27-24.39,20.21-26.44-1.88-1.88-18.14,11.36-20,13.46-15.87,18.18-26.11,29.41-38.62,50.16C115.36,164.71,124.25,169.87,127.67,164.21Z"/><path class="cls-4" d="M97.29,287.73C111.45,260.31,117.2,250,135.11,225c1.63-2.26,24.06-27.58,21.82-28.89-2.6-1.51-14,8.65-16.07,10.56-34.9,32.6-38.29,48.43-52.46,75.86C85.37,288.43,94.24,293.63,97.29,287.73Z"/><path class="cls-4" d="M67.27,373q28.1-47.72,60.82-92.48c6.12-8.36,6-8.44,12.36-16.62,1.7-2.19,12.63-18.68,10.5-20.81-1.78-1.77-19.2,15.54-20.91,17.75C107,290.47,94.91,308.8,75,340.58Q66.48,354.1,58.4,367.84C55,373.56,63.92,378.73,67.27,373Z"/><path class="cls-4" d="M34.56,446.59c26.08-20,59.49-51.12,80.75-76.2,33.73-39.81,3-19.44-7.29-7.27-20.68,24.37-45.61,44.86-71,64.29-2.2,1.68-3.36,4.44-1.83,7,1.27,2.17-2.9,7.71-.68,6Z"/></g><g class="cls-5"><path class="cls-6" d="M-150,757.64c43.41-9.43,83.51-29.64,119.1-55.91C4.9,675.33,36,642.93,63.52,608.06c32.82-41.63,60.61-86.9,88.49-131.9,26.62-43,53-86.87,85.26-125.94,25.92-31.38,58.23-61.16,98.2-72.69a141.06,141.06,0,0,1,15-3.42l-6.91-3.33c6.66,12-3.37,25.18-11.77,33.77-6.14,6.27-13.08,11.7-19.78,17.34L288.09,342q-46.81,39.38-93.66,78.76c-17.52,14.74-26.72,23.41-44.25,38.14-2.38,2-11.05,11.77-9.33,14.26,1.61,2.31,5.35,3.88,8,2.12a187.79,187.79,0,0,1,139.06-28.33c-1.28-3.66-2.56-7.31-3.84-11A469.26,469.26,0,0,1,145,521.44a459,459,0,0,1-43.53,14.69l7.58,6.45c7.58-41.53,2.1-85.1-14.71-123.77a206,206,0,0,0-16.89-31.15c-3.05-4.63-9.32-4.42-11.57.85A239.79,239.79,0,0,0,48.73,510.09c4.18,35.2,18.65,77,58.49,83.51,18.69,3,37.42-3,56.09-.72,11.88,1.43,26.21,8,30.64,19.47,1.7,4.42.88,10.73-1.73,14.75a18.53,18.53,0,0,1-5.12,5.07,30.3,30.3,0,0,1-7.79,3.47,63.34,63.34,0,0,1-20.51,2c-7-.31-14-1-20.5-3-.46-.15-.89-.32-1.33-.5-1-.4.75.53-.47-.29-1.06-.69-2.1-1.38-3.1-2.14s0,.08-.77-.63c-.45-.42-.89-.83-1.33-1.27-1.15-1.14-2.25-2.34-3.31-3.57A181.92,181.92,0,0,1,115.87,610c-7.22-10.51-14.33-22.78-25-30.2a24,24,0,0,0-7.28-3.5c-7.77-2.06-11.77,9.83-3.94,11.93.52.14,1,.31,1.55.48s1.82.93.48.17a29.29,29.29,0,0,1,3.1,2,40.43,40.43,0,0,1,5.4,5.24,168.49,168.49,0,0,1,12.56,16.72c7.36,10.7,14.62,23.49,25.71,30.81,5.65,3.75,12.66,4.66,19.24,5.61a100.75,100.75,0,0,0,23.41.66c14.26-1.3,29.31-7.4,34.58-21.8,5.54-15.14-2.65-29.94-15.32-38.3a59.2,59.2,0,0,0-20.89-8.49c-9.21-1.83-18.46-1.28-27.77-.54-18.42,1.47-37.81,3.74-53.29-8.49-13.21-10.45-20-27.78-23.77-43.7-9.39-39.78-5.84-83.11,7.56-121.52q2.58-7.36,5.63-14.55l-11.57.85A204.28,204.28,0,0,1,99.84,507.69,205.32,205.32,0,0,1,96.51,542c-.71,3.9,4,7.46,7.58,6.46a482.39,482.39,0,0,0,151.64-73.57,469.25,469.25,0,0,0,36.64-29.46c4.51-4,1.27-10-3.83-11-38.89-7.26-79.74-2.15-116,13.64-10.24,4.47-15.51,7-24.82,13.23,2.32,3.44.12,9.68,2.43,13.12q48.73-41,97.48-82l48.73-41,24.84-20.89c6.86-5.78,14-11.33,20.12-17.88,11.72-12.45,22.81-30.49,13.39-47.49a6.49,6.49,0,0,0-6.91-3.33c-42.46,7.37-78.15,34-106.74,65-33.16,36.05-59.47,78.12-85.34,119.5C127.39,491.76,100,537.84,68.35,581c-26.78,36.49-56.91,70.61-92,99.28-33.4,27.29-71.57,49.52-113.27,61.22-5.17,1.45-10.4,2.73-15.64,3.88C-160.49,747.06-157.91,759.35-150,757.64Z"/></g><g class="cls-7"><path class="cls-8" d="M-6.87,857.18c13.4,26.48,27.32,52.6,48.48,71.9,26.64,24.3,58.51,43.92,95.68,47.37s80.27-11.7,107.66-45.37c5.52-6.79,10.56-14.86,10.89-23.11.7-17.41-17.86-23.5-32.1-29.38s-27.05-25.2-14.32-38.47l81.28,27c20.87,6.93,42.92,13.9,66.15,8.19s47.31-29,46.82-53.45c-1-51.51-90-33.65-102.48-81.34,21.07-9.51,43-5.11,62.85.5s40.37,12.3,62,6.86,44.14-28.34,41.76-50.69c-3.87-36.07-63.79-39.75-56.18-77.32,2.71-13.39,13.78-24.15,21.12-36.22,16.14-26.59,25.89-82.66-8.1-104.55C403.05,465.13,362.78,472,343,496c-20.89,25.29-23.72,59.12-38.57,101.62-7,20.15-27.35,9.44-34.93-7.42-2.4-5.34-2.09-12-2.08-18.34,0-29.76-12.93-62.08-40.58-62.47C199.34,509,174.86,541,167,570.8s-5.24,59.86-11.7,89.82c-1.3,6-3.16,12.43-7.46,17.09-11.66,12.64-29.78,2.06-34.13-12.61s-2.2-32.53-9.46-45.39c-8.47-15-28.39-18.81-46.07-12.68S25,627.37,12.29,643c-25.86,31.88-42.61,71.59-46.62,110.55C-34.33,753.58-28.48,814.5-6.87,857.18Z"/></g></g>
<g id="star"><g class="cls-9"><path class="cls-10" d="M222.54,191.55c-4.62-14-10.86-39.49-12.89-54.11-.37-2.84,0-6.7,2.82-7.17,2.58-.47,4.29,2.54,5.19,5q8.44,23.24,16.75,46.56a93.46,93.46,0,0,1,40.86-18.58,2.33,2.33,0,0,1,2.51,3.26,48,48,0,0,1-19.59,21.63c-3.12,1.79-6.74,3.65-7.61,7.13-.56,2.25.3,4.56,1.07,6.73a161.54,161.54,0,0,1,9.06,41.71,2.74,2.74,0,0,1-4.66,2.08c-9.22-8.89-12.22-23.67-19.79-34.6a7.08,7.08,0,0,0-3.26-3c-1.77-.62-3.73,0-5.48.7a291.36,291.36,0,0,1-41.89,12.21c-3.85.79-9.67-.23-8.94-4a5.67,5.67,0,0,1,1.94-2.93,66,66,0,0,1,21.53-13.78Z"/></g></g><g id="dot1"><g class="cls-11"><path class="cls-12" d="M276.45,74.41c-9.05,8.56-6.82,26.66,8.68,22.32C308,90.3,291.94,59.75,276.45,74.41Z"/></g></g><g id="dot2"><g class="cls-13"><path class="cls-12" d="M470.46,580.56c-9,8.57-6.81,26.66,8.68,22.32C502,596.45,486,565.91,470.46,580.56Z"/></g></g><g id="dot3"><g class="cls-14"><path class="cls-12" d="M496.06,625.89c-4.26,3.81-3.2,11.85,4.09,9.93C510.92,633,503.35,619.38,496.06,625.89Z"/></g></g></svg>
