<svg xmlns="http://www.w3.org/2000/svg" xmlns:xlink="http://www.w3.org/1999/xlink" viewBox="0 0 647.72 718.23"><defs>
  <style>
    .cls-1{fill:none;}.cls-2{clip-path:url(#clip-path);}.cls-3{fill:#194429;}.cls-4{clip-path:url(#clip-path-2);}.cls-5{fill:#198c36;}.cls-6{fill:#153a23;}.cls-7{clip-path:url(#clip-path-3);}.cls-8{fill:#1f7a36;}.cls-9{fill:#163a24;}.cls-10{clip-path:url(#clip-path-4);}.cls-11{fill:#fbc8b8;}.cls-12{clip-path:url(#clip-path-5);}.cls-13{clip-path:url(#clip-path-6);}.cls-14{fill:#f7bc28;}.cls-15{clip-path:url(#clip-path-7);}.cls-16{clip-path:url(#clip-path-8);}

    #star1, #star2 {
  	animation-timing-function: ease-in-out;
  	animation-iteration-count: infinite;
  	animation-direction: alternate;
  	}

  	#star1 {
      animation-name: star1;
      animation-duration: 2.75s;
  	}

  	#star2 {
      animation-name: star2;
      animation-duration: 2.5s;
  	}

  	@keyframes star1 {
      0 {
        opacity: 0;
        width: 50px;
      }
  		15% {
        opacity: .25;
      }
  		50% {
  			opacity: 1;
  		}
  		85% {
        opacity: .25;
      }
      100% {
          opacity: 0;
          width: 35px;
      }
    }

  	@keyframes star2 {
      0 {
        opacity: 1;
        width: 35px;
      }
  		50% {
  			opacity: 0;
  			width: 75px;
  		}
      100% {
          opacity: 1;
          width: 35px;
      }
    }
  </style>
  <clipPath id="clip-path"><rect class="cls-1" x="122.94" y="297.58" width="705.9" height="567.84" transform="translate(-116.48 1043.79) rotate(-88.67)"/></clipPath><clipPath id="clip-path-2"><rect class="cls-1" x="233.94" y="284.93" width="489.94" height="919.8" transform="translate(-158.61 130.25) rotate(-13.31)"/></clipPath><clipPath id="clip-path-3"><rect class="cls-1" x="7.99" y="494.97" width="461.06" height="277.41" transform="translate(-38.02 15.65) rotate(-3.48)"/></clipPath><clipPath id="clip-path-4"><rect class="cls-1" x="80.75" y="414.61" width="78.08" height="87.09" transform="translate(-1.45 0.38) rotate(-0.18)"/></clipPath><clipPath id="clip-path-5"><rect class="cls-1" x="548.86" y="99.69" width="117.18" height="105.06" transform="translate(308.43 702.45) rotate(-75.55)"/></clipPath><clipPath id="clip-path-6"><rect class="cls-1" x="25" y="668.19" width="24.61" height="26.06"/></clipPath><clipPath id="clip-path-7"><rect class="cls-1" x="369.05" y="399.65" width="17.37" height="15.93" transform="translate(-177.04 440.13) rotate(-50.53)"/></clipPath><clipPath id="clip-path-8"><rect class="cls-1" x="402.29" y="299.89" width="24.61" height="26.06"/></clipPath></defs><g id="leafs"><g class="cls-2"><path class="cls-3" d="M696.87,936.22C555.81,952.9,405.65,881.56,321.54,757.9c-3.88-5.7-7.79-12.09-7.41-19,1-18.76,28.62-19.49,38.83-34.61,14.75-21.84-15.43-48.14-40.49-56-34.4-10.8-72.55-18.61-96.6-47-30.75-36.35-25.73-91.46-11.82-136.46s35-89.75,30.21-137.42c-3.77-37.14-17.39-87.4,15-101.44,19.68-8.52,42,6,57.93,21.87,51.38,51.19,84.22,124.49,146.4,159.69,44.08,24.95,96.47,26.59,141.94,48.5,50.85,24.5,88.77,72.37,116.91,123.24,24.4,44,43.21,92.89,44,143.1s-18.76,101.92-58.22,128.94"/></g><g class="cls-4"><path class="cls-5" d="M346.39,1248.78a807.4,807.4,0,0,0,193.85-207.26c29.3-45.23,54-93.26,77.53-141.71,16.66-34.26,32.92-69.1,41.65-106.17C667.5,759.41,669,724,669.5,688.82q1.29-89.25-5.58-178.34c-5.43-70.56-15.29-142.65-48.75-205-11.39-21.24-27.58-42.6-51.13-47.94-33.79-7.68-64.85,20.64-84.24,49.35-27.65,41-46.12,87.29-63.6,133.5-59.33,156.91-110.38,322.3-96.76,489.4"/><path class="cls-6" d="M500.81,910.64q22.65-59.7,39.28-121.46t27-125q10.46-63,14.68-126.77t2.12-127.59c-1.41-42.63-4.94-85.21-10.59-127.5q-1-7.89-2.2-15.79c-1-6.67-11.18-4.22-10.21,2.41a1260.47,1260.47,0,0,1,12,126.15q2.8,63.24-.64,126.54Q568.8,585.05,559.16,648q-9.58,62.44-25.32,123.72T496.35,892.63q-2.73,7.49-5.57,15C488.37,913.9,498.42,916.91,500.81,910.64Z"/><path class="cls-6" d="M583.53,412c7.35-22.62,8.35-27.88,19.5-48.82,1.31-2.49,16.47-29.33,13.94-30.88-2.27-1.41-15.39,15.48-16.72,18-11.56,21.71-19.14,35.21-26.76,58.66C571.41,415.33,581.44,418.37,583.53,412Z"/><path class="cls-6" d="M582,541.37c7.71-30.45,11-42,23-70.9,1.08-2.61,17.5-32.91,15-33.68-2.93-.89-11.94,11.84-13.52,14.2-27.14,40.41-26.84,56.88-34.56,87.33C570.29,544.84,580.31,547.91,582,541.37Z"/><path class="cls-6" d="M571.93,632.81a1125.5,1125.5,0,0,1,39-105.74c4.14-9.7,4-9.77,8.43-19.35,1.19-2.56,8.22-21.44,5.62-23.05-2.19-1.35-15.48,19.86-16.68,22.44-16,34.69-23.79,55.66-36.26,91.78q-5.29,15.36-10.15,30.86C559.87,636.2,569.92,639.25,571.93,632.81Z"/><path class="cls-6" d="M556.47,713.28c21.29-25.86,47.28-64.48,62.6-94.26,24.29-47.28-1.48-20-8.92-5.5-14.91,29-34.94,55.05-55.64,80.2-1.81,2.18-2.3,5.18-.19,7.4,1.77,1.85-1.08,8.3.73,6.1l1.43,6.06Z"/></g><g class="cls-7"><path class="cls-8" d="M457.09,754.1c-122.91,26.9-256.63-.23-359.46-72.91-41.53-29.35-80-69.33-88.18-119.61-.92-5.7-1.24-12.16,2.45-16.6C15,541.3,20,540,24.67,539.1,134.23,517.76,242.28,583.41,322.75,661a348.2,348.2,0,0,1-26.92-139.13c.2-13.63,5.1-31.33,18.69-31.75,8.41-.26,15,6.82,20.31,13.42A688.26,688.26,0,0,1,451,718.23"/><path class="cls-9" d="M11.17,546.32c54.11-13.85,111.69-4.43,162.52,17.07,52.78,22.31,98.56,57.69,140.35,96.4,24.15,22.37,47.15,46,70.11,69.56,5.06,5.21,13.48-1.21,11.33-7.58-18.11-53.85-36.86-107.51-54.38-161.56-13.66-42.12-19.85-33.8-8.77,3.33,16.22,54.46,31.69,109,49.82,162.81l11.35-7.58c-41.42-42.59-83.18-85.44-131.33-120.51C215.09,564,161.53,537.36,103.5,528.68c-32.31-4.83-65.19-3.86-96.9,4.26-3.69.94-5.54,5.57-4.39,9C3.53,545.77,7.48,547.26,11.17,546.32Z"/><path class="cls-3" d="M469.1,739.1A624.1,624.1,0,0,1,317,720,634.13,634.13,0,0,1,173.8,664.71C148.44,651.2,137.25,651.53,109,630.6c-3-2.26-32.5-25-35.21-21.91-2.33,2.64,14.58,18.66,17.69,20.92A640.53,640.53,0,0,0,228.78,706a648.4,648.4,0,0,0,152.27,41A641.69,641.69,0,0,0,470,753.22C479,753.22,478.15,739.1,469.1,739.1Z"/><path class="cls-3" d="M150.43,620c39.26,25.69,69.29,62.55,104.65,93,6.89,5.93,31.17,6.49,24.26.55-36.37-31.25-71.13-68.64-111.52-95.07-3.19-2.09-31.54-16.2-33.13-13.06C132.79,609.08,147.23,617.91,150.43,620Z"/><path class="cls-3" d="M255.25,656.76c29.62,28.48,40.83,51.67,71.45,75.87,7.11,5.61,39.32,7.38,32.17,1.73-30.64-24.19-64.72-58.23-93.66-84.44C238.05,625.32,221.3,622.85,255.25,656.76Z"/></g></g><g id="star1"><g class="cls-10"><path class="cls-11" d="M116.54,458c-.7-10.32-.51-28.72.65-39,.24-2,1.16-4.55,3.17-4.38,1.84.13,2.47,2.48,2.65,4.3q1.71,17.25,3.28,34.56a65.48,65.48,0,0,1,31-5.53,1.64,1.64,0,0,1,1.15,2.66,33.75,33.75,0,0,1-17.09,11.29c-2.43.67-5.21,1.31-6.4,3.52-.78,1.43-.59,3.15-.45,4.76a112.77,112.77,0,0,1-1.1,29.92,1.92,1.92,0,0,1-3.53.6c-4.72-7.64-4.18-18.21-7.43-27a5,5,0,0,0-1.69-2.59,5.75,5.75,0,0,0-3.85-.47,203,203,0,0,1-30.59,1c-2.76-.13-6.53-1.83-5.38-4.28a4,4,0,0,1,1.83-1.65,46.2,46.2,0,0,1,17-5.62Z"/></g></g><g id="star2"><g class="cls-12"><path class="cls-11" d="M603.25,151c2.59-13.67,9.09-37.57,14.11-50.57,1-2.51,3-5.53,5.61-4.63,2.34.8,2.39,4.07,2,6.5q-3.68,23-7.49,46.11a88,88,0,0,1,42.24,3.34,2.21,2.21,0,0,1,.58,3.85,45.32,45.32,0,0,1-26.07,8.89c-3.4,0-7.23-.07-9.54,2.4-1.49,1.61-1.83,3.9-2.2,6a151.63,151.63,0,0,1-11.61,38.58,2.58,2.58,0,0,1-4.79-.41c-3.55-11.56.74-25.14-.51-37.61a6.82,6.82,0,0,0-1.33-3.95c-1.19-1.32-3.1-1.67-4.85-1.93a273.86,273.86,0,0,1-40.16-9.08c-3.53-1.11-7.88-4.61-5.55-7.41a5.4,5.4,0,0,1,2.94-1.53A62.36,62.36,0,0,1,580.72,148Z"/></g></g><g id="dot1"><g class="cls-13"><path class="cls-14" d="M30.14,672c-8.76,8.29-6.61,25.82,8.41,21.62C60.71,687.39,45.15,657.8,30.14,672Z"/></g></g><g id="dot2"><g class="cls-15"><path class="cls-14" d="M378.06,399.92c-7.89.67-14.24,10.58-5,14.58C386.81,420.42,391.57,398.79,378.06,399.92Z"/></g></g><g id="dot3"><g class="cls-16"><path class="cls-14" d="M407.43,303.7c-8.76,8.3-6.6,25.83,8.41,21.62C438,319.09,422.44,289.51,407.43,303.7Z"/></g></g></svg>
